<svg class="navbar-brand-item" xmlns="http://www.w3.org/2000/svg" viewBox="0 0 1051.42 225.03">
                    <defs>
                        <style>
                            .d {
                                fill: #fff;
                            }
                        </style>
                    </defs>
                    <g id="a"></g>
                    <g id="b">
                        <g id="c">
                            <g>
                                <g>
                                    <g>
                                        <path class="d" d="M391.01,127.47c0,16.94-7.66,32.08-19.71,42.17v-42.17c0-19.45-15.77-35.22-35.23-35.22s-35.22,15.77-35.22,35.22,15.77,35.24,35.22,35.24c9.43,0,17.97-3.69,24.29-9.72v23.77c-7.32,3.62-15.58,5.66-24.29,5.66-30.34,0-54.94-24.6-54.94-54.94s24.6-54.94,54.94-54.94,54.94,24.6,54.94,54.94Z"></path>
                                        <rect class="d" x="370.78" y="75.28" width="20.39" height="107.14"></rect>
                                    </g>
                                    <g>
                                        <path class="d" d="M954.13,127.47c0,16.94-7.66,32.08-19.71,42.17v-42.17c0-19.45-15.77-35.22-35.23-35.22s-35.22,15.77-35.22,35.22,15.77,35.24,35.22,35.24c9.43,0,17.97-3.69,24.29-9.72v23.77c-7.32,3.62-15.58,5.66-24.29,5.66-30.34,0-54.94-24.6-54.94-54.94s24.6-54.94,54.94-54.94,54.94,24.6,54.94,54.94Z"></path>
                                        <rect class="d" x="933.9" y="75.28" width="20.39" height="107.14"></rect>
                                    </g>
                                    <g>
                                        <path class="d" d="M505.66,73.95v19.79c-1.05-.1-2.11-.15-3.18-.15-19.47,0-35.24,15.77-35.24,35.22v42.17c-12.05-10.09-19.71-25.23-19.71-42.17,0-30.34,24.6-54.94,54.94-54.94,1.07,0,2.12,.03,3.18,.09Z"></path>
                                        <rect class="d" x="447.39" y="75.28" width="20.39" height="107.14" transform="translate(915.16 257.69) rotate(-180)"></rect>
                                    </g>
                                    <rect class="d" x="408.23" y="75.28" width="20.39" height="107.14"></rect>
                                    <rect class="d" x="408.23" y="42.35" width="20.39" height="20.39"></rect>
                                    <path class="d" d="M647.64,146.01c2.63,6.08,6.46,10.82,11.5,14.2,5.05,3.41,10.57,5.11,16.58,5.11,6.44,0,11.82-1.33,16.14-3.96,4.32-2.65,6.47-5.78,6.47-9.39,0-6.52-5.27-11.33-15.82-14.39l-18.43-4.37c-.25-.07-.51-.12-.75-.19h-.02c-20.44-5.06-30.65-14.58-30.65-28.59,0-9.31,3.99-16.79,11.98-22.41,7.97-5.64,18.18-8.46,30.63-8.46,9.51,0,18.11,2.16,25.81,6.47,5.37,3.02,9.63,6.74,12.74,11.2l-15.02,12.44c-2.06-3.96-5.25-7.07-9.58-9.34-4.62-2.43-9.79-3.65-15.49-3.65-5.27,0-9.99,1.26-14.15,3.75-4.18,2.5-6.27,5.56-6.27,9.17,0,5.84,5.78,10.01,17.35,12.5l10.13,2.46h.02l6.12,1.5c21.37,5.01,32.06,15.22,32.06,30.67,0,8.89-4.09,16.39-12.3,22.51-8.19,6.12-18.52,9.17-30.95,9.17-10.84,0-20.35-2.67-28.56-8.02-6.4-4.18-11.38-9.41-14.92-15.66l15.39-12.72Z"></path>
                                    <path class="d" d="M980.08,146.01c2.63,6.08,6.46,10.82,11.5,14.2,5.05,3.41,10.57,5.11,16.58,5.11,6.44,0,11.82-1.33,16.14-3.96,4.32-2.65,6.47-5.78,6.47-9.39,0-6.52-5.27-11.33-15.82-14.39l-18.43-4.37c-.25-.07-.51-.12-.75-.19h-.02c-20.44-5.06-30.65-14.58-30.65-28.59,0-9.31,3.99-16.79,11.98-22.41,7.97-5.64,18.18-8.46,30.63-8.46,9.51,0,18.11,2.16,25.81,6.47,5.37,3.02,9.63,6.74,12.74,11.2l-15.02,12.44c-2.06-3.96-5.25-7.07-9.58-9.34-4.62-2.43-9.79-3.65-15.49-3.65-5.27,0-9.99,1.26-14.15,3.75-4.18,2.5-6.27,5.56-6.27,9.17,0,5.84,5.78,10.01,17.35,12.5l10.13,2.46h.02l6.12,1.5c21.37,5.01,32.06,15.22,32.06,30.67,0,8.89-4.09,16.39-12.3,22.51-8.19,6.12-18.52,9.17-30.95,9.17-10.84,0-20.35-2.67-28.56-8.02-6.4-4.18-11.38-9.41-14.92-15.66l15.39-12.72Z"></path>
                                    <g>
                                        <rect class="d" x="536.28" y="73.95" width="65.26" height="19.27"></rect>
                                        <polygon class="d" points="601.55 93.23 557.77 181.96 536.28 181.96 584.27 84.7 601.55 93.23"></polygon>
                                    </g>
                                    <g>
                                        <path class="d" d="M835.67,127.74c0,3.48-.32,6.9-.95,10.19h-18.76v-10.19c0-3.55-.53-6.97-1.49-10.19-4.37-14.47-17.82-25.02-33.74-25.02-19.45,0-35.22,15.77-35.22,35.22s15.77,35.24,35.22,35.24c9.43,0,17.97-3.69,24.29-9.72v23.77c-7.32,3.62-15.58,5.66-24.29,5.66-30.34,0-54.94-24.6-54.94-54.94s24.6-54.94,54.94-54.94c26.86,0,49.22,19.28,53.99,44.75,.63,3.3,.95,6.71,.95,10.19Z"></path>
                                        <path class="d" d="M835.67,127.74c0,3.48-.32,6.9-.95,10.19h-65.07v-20.39h65.07c.63,3.3,.95,6.71,.95,10.19Z"></path>
                                        <path class="d" d="M809.3,148.34h22.37c-8.15,20.13-27.9,34.33-50.95,34.33-30.34,0-54.94-24.6-54.94-54.94,0-26.86,19.28-49.22,44.75-53.99,3.3-.63,6.71-.95,10.19-.95s6.9,.32,10.19,.95v18.76h-10.19c-3.55,0-6.97,.53-10.19,1.5-14.47,4.37-25.02,17.82-25.02,33.74,0,19.45,15.77,35.22,35.22,35.22,11.77,0,22.19-5.76,28.58-14.61Z"></path>
                                        <path class="d" d="M835.67,127.74c0,3.48-.32,6.9-.95,10.19h-20.25c.97-3.23,1.49-6.64,1.49-10.19,0-9.43-3.69-17.97-9.72-24.29h23.77c3.62,7.32,5.66,15.58,5.66,24.29Z"></path>
                                    </g>
                                </g>
                                <g>
                                    <path class="d" d="M223.07,142.19c1.27-1.3,2.28-2.86,2.96-4.57,.65-1.61,1-3.37,1-5.21s-.36-3.6-1-5.21c-.69-1.74-1.72-3.31-3-4.62l-39.9-39.9c-2.54-2.55-6.07-4.12-9.94-4.12s-7.29,1.52-9.83,4.01l-.28,.28-7.37,7.37v64.5h-28.13v-36.37L44.43,201.5c-2.28,2.5-3.66,5.82-3.66,9.46,0,7.77,6.3,14.07,14.07,14.07h79.58c3.8,0,7.26-1.51,9.78-3.96l78.87-78.87Z"></path>
                                    <path class="d" d="M91.92,0c-3.55,.17-6.75,1.67-9.13,4.02L4.15,82.65l-.08,.07c-2.52,2.54-4.07,6.04-4.07,9.9s1.52,7.28,4,9.82l.24,.24,39.67,39.67c2.54,2.54,6.06,4.12,9.94,4.12s7.28-1.52,9.82-4l44.02-44.02h-36.36v-28.13h64.5l46.48-46.49c2.46-2.53,3.97-5.99,3.97-9.78,0-7.53-5.91-13.67-13.34-14.05H91.92Z"></path>
                                </g>
                            </g>
                        </g>
                    </g>
                </svg>